<svg xmlns="http://www.w3.org/2000/svg" xmlns:xlink="http://www.w3.org/1999/xlink" width="550" height="550" viewBox="0 0 550 550">
  <defs>
    <clipPath id="clip-Web_1920_1">
      <rect width="550" height="550"/>
    </clipPath>
  </defs>
  <g id="Web_1920_1" data-name="Web 1920 – 1" clip-path="url(#clip-Web_1920_1)">
    <g id="Ellipse_1" data-name="Ellipse 1" transform="matrix(0.999, -0.035, 0.035, 0.999, -9.43, 9.765)" fill="#4ac5b6" stroke="#707070" stroke-width="1">
      <circle cx="275" cy="275" r="275" stroke="none"/>
      <circle cx="275" cy="275" r="274.5" fill="none"/>
    </g>
    <g id="noun-style-2448782" transform="translate(847.788 449.097)">
      <path id="Path_1" data-name="Path 1" d="M209.967,382.607c-28.147,6.006-55.443,6.062-81.393-3.3-28.207-19.8-28.853-36.146-31.526-52.75,1.713-33.051,16.3-42.033,30.288-52.134,14.645-7.352,30.437-11.4,49.454-6.181,17.271,6.514,24.009,17.186,20.4,31.939-7.682,14.275-16.914,19.258-26.788,20.4,16.621-16.407,4.253-29.2-14.219-29.467-20.053,2.594-29.052,29.866-20.195,43.891,10.932,17.307,51.421,14.489,60.581.188,8.926-13.916,21.974-28.411,37.5-34.206,17.314-5.808,39.653-6.194,75.625,2.27,35.971-8.461,60.37-8.075,77.684-2.27,15.529,5.794,28.576,20.291,37.5,34.206,9.164,14.281,49.648,17.1,60.581-.188,8.856-14.025-.139-41.3-20.195-43.891-18.472.284-30.84,13.061-14.219,29.467-9.873-1.145-19.106-6.124-26.788-20.4-3.607-14.754,3.128-25.425,20.4-31.939,19.017-5.217,34.81-1.168,49.454,6.181,13.988,10.1,28.576,19.083,30.292,52.134-2.676,16.6-3.32,32.955-31.526,52.75-25.947,9.358-53.242,9.306-81.39,3.3-49.546-7.438-87.4-16.756-100.559-29.728-14.113,12.971-51.417,22.29-100.964,29.728Zm-69.9-171.594c16.845-2.369,84.644-21.142,116.719-38.4,8.329-4.481,20.62-13.377,19.578-16.565-1.567-4.791-16.239-13.149-41.04-15.813-31.315-3.363-80.674-2.247-96.006,7.154-10.374,6.362-2.089,63.63.752,63.63Zm-38.4-76.806c38.271-7.085,76.06-9.355,113.332-6.4,31.915,4.333,63.524,8.9,91.486,16.189,38.528-6.392,77.057-16.509,115.587-18.449a186.813,186.813,0,0,1,51.959,3.765c15.113,1.251,32.012-.472,44.429,5.27,1.8,7.108,5.5,11.714-2.26,26.355l-8.282,7.154c-7.523,21.079-14.172,41.28-20.707,61.369-8.7,16.222-19.145,31.464-43.673,38.779-19.317,4.2-38.938,6.58-60.241-1.129-9.242-3.8-16.317-3.267-33.134-22.214-11.645-16.941-16.261-33.885-23.343-50.827-8.309-29.6-25.953-24.247-35.014,1.129-4.541,18.393-9.7,36.664-24.095,53.087-9.062,7.817-16.08,15.945-37.651,21.838-18.242,2.544-36.5,4.87-55.724-3.389-9.668-4.676-19.123-7.844-29.744-19.2-6.735-7.949-11.711-17.654-15.436-28.616-5.669-17.958-11.084-35.674-17.7-54.589l-8.283-3.765c-3.455-8.784-3.036-17.568-1.5-26.355Zm240.2,73.345c16.845-2.336,56.958-15.747,86.629-35.476,15.008-11.226,36.123-23.346,35.909-28.613-.148-3.636-9.14-4.867-27.286-6.7-72.48.459-115.063,9.846-95.254,70.784Z" transform="translate(-883.517 -416)"/>
    </g>
  </g>
</svg>
