<svg xmlns="http://www.w3.org/2000/svg" xmlns:xlink="http://www.w3.org/1999/xlink" width="550" height="550" viewBox="0 0 550 550">
  <defs>
    <clipPath id="clip-Web_1920_1">
      <rect width="550" height="550"/>
    </clipPath>
  </defs>
  <g id="Web_1920_1" data-name="Web 1920 – 1" clip-path="url(#clip-Web_1920_1)">
    <g id="noun-style-2448782" transform="translate(808.518 411.006)">
      <path id="Path_1" data-name="Path 1" d="M230.72,429.93c-33.32,7.109-65.633,7.176-96.352-3.9-33.391-23.434-34.156-42.789-37.32-62.445,2.027-39.125,19.3-49.758,35.855-61.715,17.336-8.7,36.031-13.5,58.543-7.316,20.445,7.711,28.422,20.344,24.148,37.809-9.094,16.9-20.023,22.8-31.711,24.148,19.676-19.422,5.035-34.566-16.832-34.883-23.738,3.07-34.391,35.355-23.906,51.957,12.941,20.488,60.871,17.152,71.715.223,10.566-16.473,26.012-33.633,44.4-40.492,20.5-6.875,46.941-7.332,89.523,2.688,42.582-10.016,71.465-9.559,91.961-2.687,18.383,6.859,33.828,24.02,44.395,40.492,10.848,16.906,58.773,20.242,71.715-.223,10.484-16.6-.164-48.887-23.906-51.957-21.867.336-36.508,15.461-16.832,34.883-11.688-1.355-22.617-7.25-31.711-24.148-4.27-17.465,3.7-30.1,24.148-37.809,22.512-6.176,41.207-1.383,58.543,7.316,16.559,11.957,33.828,22.59,35.859,61.715-3.168,19.656-3.93,39.012-37.32,62.445-30.715,11.078-63.027,11.016-96.348,3.9-58.652-8.8-103.46-19.836-119.04-35.191-16.707,15.355-60.867,26.387-119.52,35.191ZM147.978,226.8c19.941-2.8,100.2-25.027,138.17-45.461,9.859-5.3,24.41-15.836,23.176-19.609-1.855-5.672-19.223-15.566-48.582-18.719-37.07-3.98-95.5-2.66-113.65,8.469-12.281,7.531-2.473,75.324.891,75.324Zm-45.461-90.922c45.3-8.387,90.039-11.074,134.16-7.578,37.781,5.129,75.2,10.531,108.3,19.164,45.609-7.566,91.219-19.543,136.83-21.84a221.146,221.146,0,0,1,61.508,4.457c17.891,1.48,37.9-.559,52.594,6.238,2.133,8.414,6.516,13.867-2.676,31.2l-9.8,8.469c-8.906,24.953-16.777,48.867-24.512,72.648-10.3,19.2-22.664,37.246-51.7,45.906-22.867,4.973-46.094,7.789-71.312-1.336-10.941-4.5-19.316-3.867-39.223-26.3C382.9,246.853,377.433,226.8,369.05,206.74c-9.836-35.043-30.723-28.7-41.449,1.336-5.375,21.773-11.48,43.4-28.523,62.844-10.727,9.254-19.035,18.875-44.57,25.852-21.594,3.012-43.207,5.766-65.965-4.012-11.445-5.535-22.637-9.285-35.211-22.73-7.973-9.41-13.863-20.9-18.273-33.875-6.711-21.258-13.121-42.23-20.953-64.621l-9.8-4.457c-4.09-10.4-3.594-20.8-1.781-31.2ZM386.867,222.7c19.941-2.766,67.426-18.641,102.55-42,17.766-13.289,42.762-27.637,42.508-33.871-.176-4.3-10.82-5.762-32.3-7.926-85.8.543-136.21,11.656-112.76,83.793Z" transform="translate(-883.517 -416)"/>
    </g>
  </g>
</svg>
